<svg width="208" height="81" viewBox="0 0 208 81" fill="none" xmlns="http://www.w3.org/2000/svg">
<g clip-path="url(#clip0)">
<path d="M98.525 50V47.525L108.175 35.65H98.6V32.5H112.9V34.975L103.25 46.85H113V50H98.525ZM126.284 48.375C125.484 49.025 124.659 49.5 123.809 49.8C122.975 50.1 122.042 50.25 121.009 50.25C120.025 50.25 119.1 50.075 118.234 49.725C117.384 49.375 116.642 48.9 116.009 48.3C115.392 47.7 114.9 46.9917 114.534 46.175C114.184 45.3417 114.009 44.45 114.009 43.5C114.009 42.5667 114.175 41.6917 114.509 40.875C114.859 40.0417 115.334 39.325 115.934 38.725C116.534 38.1083 117.242 37.625 118.059 37.275C118.892 36.925 119.775 36.75 120.709 36.75C121.625 36.75 122.475 36.9333 123.259 37.3C124.059 37.65 124.742 38.1333 125.309 38.75C125.892 39.3667 126.342 40.1083 126.659 40.975C126.992 41.825 127.159 42.75 127.159 43.75V44.65H117.459C117.692 45.4667 118.142 46.125 118.809 46.625C119.475 47.125 120.259 47.375 121.159 47.375C121.725 47.375 122.259 47.2833 122.759 47.1C123.259 46.9167 123.684 46.6583 124.034 46.325L126.284 48.375ZM120.634 39.575C119.85 39.575 119.175 39.8167 118.609 40.3C118.042 40.7667 117.65 41.4 117.434 42.2H123.809C123.592 41.4333 123.192 40.8083 122.609 40.325C122.042 39.825 121.384 39.575 120.634 39.575ZM128.279 48.45L129.979 46.175C130.746 46.675 131.471 47.05 132.154 47.3C132.838 47.5333 133.521 47.65 134.204 47.65C134.971 47.65 135.579 47.525 136.029 47.275C136.496 47.025 136.729 46.6917 136.729 46.275C136.729 45.9417 136.596 45.675 136.329 45.475C136.079 45.275 135.671 45.1333 135.104 45.05L132.604 44.675C131.321 44.475 130.338 44.0583 129.654 43.425C128.988 42.7917 128.654 41.95 128.654 40.9C128.654 39.65 129.146 38.65 130.129 37.9C131.113 37.15 132.429 36.775 134.079 36.775C135.029 36.775 135.954 36.9167 136.854 37.2C137.754 37.4667 138.613 37.8667 139.429 38.4L137.779 40.6C137.063 40.1833 136.379 39.875 135.729 39.675C135.079 39.4583 134.421 39.35 133.754 39.35C133.138 39.35 132.638 39.4667 132.254 39.7C131.888 39.9333 131.704 40.2417 131.704 40.625C131.704 40.975 131.838 41.25 132.104 41.45C132.388 41.6333 132.846 41.7667 133.479 41.85L135.979 42.225C137.246 42.4083 138.221 42.825 138.904 43.475C139.604 44.125 139.954 44.95 139.954 45.95C139.954 46.5667 139.804 47.1417 139.504 47.675C139.221 48.1917 138.829 48.6417 138.329 49.025C137.829 49.4083 137.229 49.7083 136.529 49.925C135.829 50.1417 135.071 50.25 134.254 50.25C133.071 50.25 131.963 50.1 130.929 49.8C129.896 49.4833 129.013 49.0333 128.279 48.45ZM143.19 46.325V39.85H140.515V36.975H143.19V33.65L146.615 32.875V36.975H150.315V39.85H146.615V45.625C146.615 46.2417 146.749 46.675 147.015 46.925C147.282 47.175 147.749 47.3 148.415 47.3C148.732 47.3 149.032 47.2833 149.315 47.25C149.599 47.2 149.907 47.1167 150.24 47V49.8C149.874 49.9167 149.432 50.0083 148.915 50.075C148.399 50.1583 147.957 50.2 147.59 50.2C146.14 50.2 145.04 49.875 144.29 49.225C143.557 48.5583 143.19 47.5917 143.19 46.325Z" fill="white"/>
<path d="M44.9192 60.4144V45.7641C44.9192 44.5632 43.4782 44.0829 42.7577 44.8034L32.4305 55.1307C31.9501 55.6111 31.9501 56.5717 32.5506 57.052C35.6727 59.5738 39.5155 61.1349 43.5984 61.6152C44.1988 61.8554 44.9192 61.1349 44.9192 60.4144Z" fill="white"/>
<path d="M28.8279 26.4304C26.3061 29.5526 24.745 33.3953 24.2647 37.4783C24.1446 38.1987 24.7451 38.9193 25.5856 38.9193H40.2359C41.4367 38.9193 41.9171 37.4783 41.1966 36.7578L30.8693 26.4305C30.2689 25.8301 29.3083 25.8301 28.8279 26.4304Z" fill="white"/>
<path d="M24.2647 42.5217C24.7451 46.7246 26.4262 50.4473 28.8279 53.5696C29.3083 54.1699 30.1489 54.1699 30.7492 53.6897L41.0765 43.3624C41.917 42.5219 41.3167 41.2009 40.1158 41.2009H25.5857C24.8651 41.0808 24.1446 41.8013 24.2647 42.5217Z" fill="white"/>
<path d="M67.7353 37.4783C67.255 33.2754 65.5738 29.5527 63.1721 26.4304C62.6918 25.8301 61.8512 25.8301 61.2508 26.3103L50.9236 36.6376C50.083 37.4782 50.6834 38.7991 51.8842 38.7991H66.5346C67.135 38.9192 67.8554 38.1987 67.7353 37.4783Z" fill="white"/>
<path d="M44.9192 34.2359V19.5856C44.9192 18.8652 44.3188 18.2647 43.4781 18.2647C39.2752 18.7451 35.5526 20.4262 32.4303 22.8279C31.8299 23.3083 31.8299 24.1488 32.3102 24.7492L42.6374 35.0765C43.4782 35.9171 44.9192 35.4367 44.9192 34.2359Z" fill="white"/>
<path d="M47.0808 19.5856V34.2359C47.0808 35.4367 48.5219 35.9171 49.2423 35.1965L59.5696 24.8693C60.05 24.3889 60.05 23.4282 59.4495 22.948C56.3273 20.4262 52.4846 18.865 48.4016 18.3848C47.8013 18.1446 47.0808 18.745 47.0808 19.5856Z" fill="white"/>
<path d="M63.1721 53.5696C65.6939 50.4474 67.255 46.6047 67.7353 42.5217C67.8554 41.8013 67.2549 41.0807 66.4144 41.0807H51.7641C50.5633 41.0807 50.0829 42.5217 50.8035 43.2422L61.1307 53.5694C61.7311 54.1699 62.6917 54.1699 63.1721 53.5696Z" fill="white"/>
<path d="M48.5218 61.7353C52.7247 61.2549 56.4473 59.5738 59.5696 57.1721C60.17 56.6917 60.17 55.8512 59.6897 55.2508L49.3624 44.9235C48.5219 44.083 47.2009 44.6834 47.2009 45.8842V60.5346C47.0808 61.1349 47.8013 61.8554 48.5218 61.7353Z" fill="white"/>
</g>
<defs>
<clipPath id="clip0">
<rect width="208" height="81" fill="white"/>
</clipPath>
</defs>
</svg>
